<mxfile host="app.diagrams.net" modified="2021-03-20T10:55:57.429Z" agent="5.0 (X11; Linux x86_64) AppleWebKit/537.36 (KHTML, like Gecko) Chrome/87.0.4280.141 Safari/537.36" etag="T_YCVrZvGZMFa9Ix_bEx" version="14.4.9" type="github">
  <diagram id="qcK2ke-T_K43PmsvYksZ" name="Page-1">
    <mxGraphModel dx="669" dy="626" grid="1" gridSize="10" guides="1" tooltips="1" connect="1" arrows="1" fold="1" page="1" pageScale="1" pageWidth="2000" pageHeight="2000" math="0" shadow="0">
      <root>
        <mxCell id="0" />
        <mxCell id="1" parent="0" />
        <mxCell id="TeGj_DYxlVRWhgEvBAZm-3" value="" style="edgeStyle=orthogonalEdgeStyle;rounded=0;orthogonalLoop=1;jettySize=auto;html=1;" parent="1" source="TeGj_DYxlVRWhgEvBAZm-1" target="TeGj_DYxlVRWhgEvBAZm-2" edge="1">
          <mxGeometry relative="1" as="geometry" />
        </mxCell>
        <mxCell id="TeGj_DYxlVRWhgEvBAZm-1" value="header" style="rounded=0;whiteSpace=wrap;html=1;" parent="1" vertex="1">
          <mxGeometry x="40" y="40" width="120" height="80" as="geometry" />
        </mxCell>
        <mxCell id="TeGj_DYxlVRWhgEvBAZm-5" value="ja" style="edgeStyle=orthogonalEdgeStyle;rounded=0;orthogonalLoop=1;jettySize=auto;html=1;" parent="1" source="TeGj_DYxlVRWhgEvBAZm-2" target="TeGj_DYxlVRWhgEvBAZm-10" edge="1">
          <mxGeometry relative="1" as="geometry" />
        </mxCell>
        <mxCell id="TAGGe39B6P18YG9Dc5_k-4" value="nej" style="edgeStyle=orthogonalEdgeStyle;rounded=0;orthogonalLoop=1;jettySize=auto;html=1;" edge="1" parent="1" source="TeGj_DYxlVRWhgEvBAZm-2" target="TAGGe39B6P18YG9Dc5_k-3">
          <mxGeometry relative="1" as="geometry" />
        </mxCell>
        <mxCell id="TeGj_DYxlVRWhgEvBAZm-2" value="POST?" style="rhombus;whiteSpace=wrap;html=1;rounded=0;" parent="1" vertex="1">
          <mxGeometry x="30" y="180" width="140" height="80" as="geometry" />
        </mxCell>
        <mxCell id="TeGj_DYxlVRWhgEvBAZm-25" value="ja" style="edgeStyle=orthogonalEdgeStyle;rounded=0;orthogonalLoop=1;jettySize=auto;html=1;" parent="1" source="TeGj_DYxlVRWhgEvBAZm-4" target="TeGj_DYxlVRWhgEvBAZm-24" edge="1">
          <mxGeometry relative="1" as="geometry" />
        </mxCell>
        <mxCell id="TeGj_DYxlVRWhgEvBAZm-27" value="nej" style="edgeStyle=orthogonalEdgeStyle;rounded=0;orthogonalLoop=1;jettySize=auto;html=1;entryX=1;entryY=0.5;entryDx=0;entryDy=0;" parent="1" source="TeGj_DYxlVRWhgEvBAZm-4" target="TeGj_DYxlVRWhgEvBAZm-15" edge="1">
          <mxGeometry relative="1" as="geometry">
            <Array as="points" />
          </mxGeometry>
        </mxCell>
        <mxCell id="TeGj_DYxlVRWhgEvBAZm-4" value="nytt kackel form&lt;br&gt;validerar?" style="rhombus;whiteSpace=wrap;html=1;rounded=0;" parent="1" vertex="1">
          <mxGeometry x="390" y="320" width="140" height="80" as="geometry" />
        </mxCell>
        <mxCell id="TeGj_DYxlVRWhgEvBAZm-13" value="ja" style="edgeStyle=orthogonalEdgeStyle;rounded=0;orthogonalLoop=1;jettySize=auto;html=1;" parent="1" source="TeGj_DYxlVRWhgEvBAZm-10" target="TeGj_DYxlVRWhgEvBAZm-12" edge="1">
          <mxGeometry relative="1" as="geometry" />
        </mxCell>
        <mxCell id="TeGj_DYxlVRWhgEvBAZm-20" value="nej" style="edgeStyle=orthogonalEdgeStyle;rounded=0;orthogonalLoop=1;jettySize=auto;html=1;dashed=1;" parent="1" source="TeGj_DYxlVRWhgEvBAZm-10" target="TeGj_DYxlVRWhgEvBAZm-19" edge="1">
          <mxGeometry relative="1" as="geometry" />
        </mxCell>
        <mxCell id="TeGj_DYxlVRWhgEvBAZm-10" value="är användaren&lt;br&gt;inloggad?" style="rhombus;whiteSpace=wrap;html=1;rounded=0;" parent="1" vertex="1">
          <mxGeometry x="210" y="180" width="140" height="80" as="geometry" />
        </mxCell>
        <mxCell id="TeGj_DYxlVRWhgEvBAZm-14" value="ja" style="edgeStyle=orthogonalEdgeStyle;rounded=0;orthogonalLoop=1;jettySize=auto;html=1;" parent="1" source="TeGj_DYxlVRWhgEvBAZm-12" target="TeGj_DYxlVRWhgEvBAZm-4" edge="1">
          <mxGeometry relative="1" as="geometry" />
        </mxCell>
        <mxCell id="TeGj_DYxlVRWhgEvBAZm-22" value="nej" style="edgeStyle=orthogonalEdgeStyle;rounded=0;orthogonalLoop=1;jettySize=auto;html=1;dashed=1;" parent="1" source="TeGj_DYxlVRWhgEvBAZm-12" target="TeGj_DYxlVRWhgEvBAZm-21" edge="1">
          <mxGeometry relative="1" as="geometry" />
        </mxCell>
        <mxCell id="TeGj_DYxlVRWhgEvBAZm-12" value="har användaren&lt;br&gt;en profil?" style="rhombus;whiteSpace=wrap;html=1;rounded=0;" parent="1" vertex="1">
          <mxGeometry x="390" y="180" width="140" height="80" as="geometry" />
        </mxCell>
        <mxCell id="TAGGe39B6P18YG9Dc5_k-12" style="edgeStyle=orthogonalEdgeStyle;rounded=0;orthogonalLoop=1;jettySize=auto;html=1;entryX=1;entryY=0.5;entryDx=0;entryDy=0;" edge="1" parent="1" source="TeGj_DYxlVRWhgEvBAZm-15" target="TAGGe39B6P18YG9Dc5_k-6">
          <mxGeometry relative="1" as="geometry">
            <Array as="points">
              <mxPoint x="280" y="480" />
            </Array>
          </mxGeometry>
        </mxCell>
        <mxCell id="TeGj_DYxlVRWhgEvBAZm-15" value="visa kackel formet" style="whiteSpace=wrap;html=1;rounded=0;" parent="1" vertex="1">
          <mxGeometry x="220" y="320" width="120" height="80" as="geometry" />
        </mxCell>
        <mxCell id="TeGj_DYxlVRWhgEvBAZm-19" value="/Login" style="whiteSpace=wrap;html=1;rounded=0;" parent="1" vertex="1">
          <mxGeometry x="220" y="40" width="120" height="80" as="geometry" />
        </mxCell>
        <mxCell id="TeGj_DYxlVRWhgEvBAZm-21" value="/Profiles/Profile" style="whiteSpace=wrap;html=1;rounded=0;" parent="1" vertex="1">
          <mxGeometry x="400" y="40" width="120" height="80" as="geometry" />
        </mxCell>
        <mxCell id="TAGGe39B6P18YG9Dc5_k-11" value="" style="edgeStyle=orthogonalEdgeStyle;rounded=0;orthogonalLoop=1;jettySize=auto;html=1;dashed=1;" edge="1" parent="1" source="TeGj_DYxlVRWhgEvBAZm-24" target="TAGGe39B6P18YG9Dc5_k-10">
          <mxGeometry relative="1" as="geometry" />
        </mxCell>
        <mxCell id="TeGj_DYxlVRWhgEvBAZm-24" value="lägg till kacklet&lt;br&gt;i databasen" style="whiteSpace=wrap;html=1;rounded=0;" parent="1" vertex="1">
          <mxGeometry x="400" y="440" width="120" height="80" as="geometry" />
        </mxCell>
        <mxCell id="TAGGe39B6P18YG9Dc5_k-5" value="ja" style="edgeStyle=orthogonalEdgeStyle;rounded=0;orthogonalLoop=1;jettySize=auto;html=1;entryX=0;entryY=0.5;entryDx=0;entryDy=0;" edge="1" parent="1" source="TAGGe39B6P18YG9Dc5_k-3" target="TeGj_DYxlVRWhgEvBAZm-15">
          <mxGeometry relative="1" as="geometry" />
        </mxCell>
        <mxCell id="TAGGe39B6P18YG9Dc5_k-7" value="nej" style="edgeStyle=orthogonalEdgeStyle;rounded=0;orthogonalLoop=1;jettySize=auto;html=1;" edge="1" parent="1" source="TAGGe39B6P18YG9Dc5_k-3" target="TAGGe39B6P18YG9Dc5_k-6">
          <mxGeometry relative="1" as="geometry" />
        </mxCell>
        <mxCell id="TAGGe39B6P18YG9Dc5_k-3" value="är användaren&lt;br&gt;inloggad?" style="rhombus;whiteSpace=wrap;html=1;rounded=0;" vertex="1" parent="1">
          <mxGeometry x="30" y="320" width="140" height="80" as="geometry" />
        </mxCell>
        <mxCell id="TAGGe39B6P18YG9Dc5_k-6" value="visa resten utav&lt;br&gt;sidans body" style="whiteSpace=wrap;html=1;rounded=0;" vertex="1" parent="1">
          <mxGeometry x="40" y="440" width="120" height="80" as="geometry" />
        </mxCell>
        <mxCell id="TAGGe39B6P18YG9Dc5_k-10" value="/Cluck/?" style="whiteSpace=wrap;html=1;rounded=0;" vertex="1" parent="1">
          <mxGeometry x="580" y="440" width="120" height="80" as="geometry" />
        </mxCell>
      </root>
    </mxGraphModel>
  </diagram>
</mxfile>
